<?xml version="1.0" standalone="no"?><!DOCTYPE svg PUBLIC "-//W3C//DTD SVG 1.1//EN" "http://www.w3.org/Graphics/SVG/1.1/DTD/svg11.dtd"><svg t="1718770994818" class="icon" viewBox="0 0 1024 1024" version="1.1" xmlns="http://www.w3.org/2000/svg" p-id="7574" xmlns:xlink="http://www.w3.org/1999/xlink" width="48" height="48"><path d="M256 128a128 128 0 0 0-128 128v512a128 128 0 0 0 128 128h512a128 128 0 0 0 128-128V256a128 128 0 0 0-128-128H256z m0-128h512a256 256 0 0 1 256 256v512a256 256 0 0 1-256 256H256a256 256 0 0 1-256-256V256a256 256 0 0 1 256-256z" fill="#1296db" p-id="7575"></path></svg>