<?xml version="1.0" standalone="no"?><!DOCTYPE svg PUBLIC "-//W3C//DTD SVG 1.1//EN" "http://www.w3.org/Graphics/SVG/1.1/DTD/svg11.dtd"><svg t="1718285722857" class="icon" viewBox="0 0 1024 1024" version="1.1" xmlns="http://www.w3.org/2000/svg" p-id="9951" xmlns:xlink="http://www.w3.org/1999/xlink" width="48" height="48"><path d="M190.969856 529.176576c0.043008-187.904 151.49056-338.798592 339.918848-338.681856 187.561984 0.116736 338.065408 151.8592 337.907712 340.690944-0.157696 187.158528-152.252416 337.330176-341.4528 337.137664-185.55904-0.190464-336.41472-152.291328-336.37376-339.146752z m339.165184 313.012224c173.152256-0.169984 312.539136-139.661312 312.539136-312.776704 0-173.092864-139.403264-312.60672-312.530944-312.778752-173.492224-0.169984-313.133056 139.577344-313.04704 313.286656 0.090112 172.904448 139.966464 312.436736 313.038848 312.2688z" fill="#1296db" p-id="9952"></path><path d="M547.260416 597.99552c0 45.375488 0.018432 90.753024-0.012288 136.128512-0.688128 11.603968-9.136128 16.683008-15.536128 16.607232-6.33856-0.073728-17.152-5.052416-17.152-16.351232-0.014336-91.092992-0.016384-182.183936 0-273.276928 0.004096-11.368448 9.857024-18.223104 15.988736-17.911808 7.87456 0.401408 16.695296 7.200768 16.70144 18.67776 0.022528 45.377536 0.01024 90.753024 0.01024 136.126464zM514.57024 371.163136c0.01024-7.4752-0.178176-14.956544 0.057344-22.423552 0.27648-8.708096 6.955008-15.235072 15.5136-15.607808 8.259584-0.360448 16.57856 6.008832 16.857088 14.44864 0.5632 16.969728 0.722944 32.288768-0.22528 49.219584-0.49152 8.798208-8.914944 13.84448-16.095232 13.85472-6.731776 0.008192-15.403008-6.520832-16.105472-14.010368-0.032768-0.335872-0.012288-0.679936-0.012288-1.017856 0-8.155136 0-16.310272 0.01024-24.46336z" fill="#1296db" p-id="9953"></path></svg>