<?xml version="1.0" standalone="no"?><!DOCTYPE svg PUBLIC "-//W3C//DTD SVG 1.1//EN" "http://www.w3.org/Graphics/SVG/1.1/DTD/svg11.dtd"><svg t="1718851603704" class="icon" viewBox="0 0 1024 1024" version="1.1" xmlns="http://www.w3.org/2000/svg" p-id="5346" xmlns:xlink="http://www.w3.org/1999/xlink" width="48" height="48"><path d="M950.896786 573.49276c5.969977-30.240882 9.099964-61.50276 9.099964-93.494635C959.99675 214.902161 745.094589 0 479.998625 0S0.0005 214.902161 0.0005 479.998125s214.902161 479.998125 479.998125 479.998125c31.991875 0 63.253753-3.129988 93.494635-9.099964a271.948938 271.948938 0 0 1-27.651892-56.030782A423.131347 423.131347 0 0 1 479.998625 899.996484C248.039531 899.996484 60.000266 711.957219 60.000266 479.998125S248.039531 59.999766 479.998625 59.999766s419.998359 188.039265 419.998359 419.998359c0 22.399913-1.753993 44.390827-5.13098 65.842743a271.949938 271.949938 0 0 1 56.029782 27.651892z" fill="#1296db" p-id="5347"></path><path d="M414.998879 395.998453h139.999453v-69.999726c0-38.659849-31.339878-69.999727-69.999727-69.999727s-69.999727 31.339878-69.999726 69.999727v69.999726z m262.998973 164.233359C615.388096 592.535685 566.882286 648.347467 544.153374 715.997203H325.999227c-18.777927 0-33.999867-15.221941-33.999868-33.999867V429.99832c0-18.777927 15.221941-33.999867 33.999868-33.999867h36.999855v-69.999726c0-67.378737 54.620787-121.999523 121.999523-121.999524 67.378737 0 121.999523 54.620787 121.999524 121.999524v69.999726h36.999855c18.777927 0 33.999867 15.221941 33.999868 33.999867v130.233492z m-218.999145 21.777915V664.997402h51.999797v-82.987675c25.785899-10.32096 43.999828-35.539861 43.999828-65.011747 0-38.659849-31.339878-69.999727-69.999727-69.999726s-69.999727 31.339878-69.999726 69.999726c0 29.471885 18.213929 54.689786 43.999828 65.011747z" fill="#1296db" p-id="5348"></path><path d="M718.024695 659.201425a165.999352 165.999352 0 0 1 43.379831-17.98293l5.689978-44.382826c1.087996-8.482967 8.309968-14.837942 16.862934-14.837942h38.079851c8.552967 0 15.774938 6.354975 16.861934 14.837942l5.689978 44.382826a165.999352 165.999352 0 0 1 43.38083 17.98293l35.418862-27.369893c6.767974-5.22898 16.366936-4.615982 22.414912 1.431994l26.926895 26.926895c6.047976 6.047976 6.659974 15.646939 1.430995 22.414913l-27.368893 35.418861a165.999352 165.999352 0 0 1 17.982929 43.379831l44.382827 5.689978c8.482967 1.087996 14.837942 8.309968 14.837942 16.862934v38.079851c0 8.552967-6.354975 15.774938-14.837942 16.861934l-44.382827 5.689978a165.999352 165.999352 0 0 1-17.982929 43.38083l27.369893 35.418862c5.22898 6.767974 4.615982 16.366936-1.431995 22.414912l-26.926895 26.926895c-6.047976 6.047976-15.646939 6.659974-22.414912 1.430995l-35.418862-27.368893a165.999352 165.999352 0 0 1-43.37983 17.982929l-5.689978 44.382827c-1.087996 8.482967-8.309968 14.837942-16.862934 14.837942h-38.079851c-8.552967 0-15.774938-6.354975-16.861934-14.837942l-5.689978-44.382827a165.999352 165.999352 0 0 1-43.380831-17.982929l-35.418861 27.369893c-6.767974 5.22898-16.366936 4.615982-22.414913-1.431995l-26.926895-26.926895c-6.047976-6.047976-6.659974-15.646939-1.430994-22.414912l27.368893-35.418862a165.999352 165.999352 0 0 1-17.98293-43.37983l-44.382826-5.689978c-8.482967-1.087996-14.837942-8.309968-14.837942-16.862934v-38.079851c0-8.552967 6.354975-15.774938 14.837942-16.861934l44.382826-5.689978a165.999352 165.999352 0 0 1 17.98293-43.380831l-27.369893-35.418861c-5.22898-6.767974-4.615982-16.366936 1.431994-22.414913l26.926895-26.926895c6.047976-6.047976 15.646939-6.659974 22.414913-1.430994l35.418861 27.368893zM802.997363 882.996551c44.182827 0 79.999688-35.81686 79.999688-79.999688s-35.81686-79.999688-79.999688-79.999687-79.999688 35.81686-79.999687 79.999687 35.81686 79.999688 79.999687 79.999688z" fill="#1296db" p-id="5349"></path></svg>