<?xml version="1.0" standalone="no"?><!DOCTYPE svg PUBLIC "-//W3C//DTD SVG 1.1//EN" "http://www.w3.org/Graphics/SVG/1.1/DTD/svg11.dtd"><svg t="1718854730432" class="icon" viewBox="0 0 1024 1024" version="1.1" xmlns="http://www.w3.org/2000/svg" p-id="11008" xmlns:xlink="http://www.w3.org/1999/xlink" width="48" height="48"><path d="M789.974309 1024z m135.533714 0A109.714286 109.714286 0 0 0 1024.397166 905.581714V118.418286A109.714286 109.714286 0 0 0 925.508023 0H99.505737A109.714286 109.714286 0 0 0 0.397166 118.418286v203.922285a31.305143 31.305143 0 0 0 27.501714 32.914286 29.988571 29.988571 0 0 0 25.673143-32.914286V118.418286a49.590857 49.590857 0 0 1 43.885714-52.589715h828.050286c23.844571-2.194286 43.885714 21.942857 43.885714 52.589715v787.163428a49.590857 49.590857 0 0 1-43.885714 52.589715h-135.533714a31.305143 31.305143 0 0 0-27.501715 32.914285 30.061714 30.061714 0 0 0 27.501715 32.914286z m-359.204572 0a113.005714 113.005714 0 0 0 100.717715-120.685714V561.298286a113.005714 113.005714 0 0 0-100.717715-120.612572h-465.188571A113.005714 113.005714 0 0 0 0.397166 561.298286v342.016A113.005714 113.005714 0 0 0 101.11488 1024z m0-517.485714a50.395429 50.395429 0 0 1 45.787429 54.784v342.089143a50.395429 50.395429 0 0 1-45.787429 54.784h-465.188571a50.395429 50.395429 0 0 1-45.787429-54.784V561.298286a50.395429 50.395429 0 0 1 45.787429-54.784h465.188571z" fill="#1296db" p-id="11009"></path></svg>