<?xml version="1.0" standalone="no"?><!DOCTYPE svg PUBLIC "-//W3C//DTD SVG 1.1//EN" "http://www.w3.org/Graphics/SVG/1.1/DTD/svg11.dtd"><svg t="1718285679198" class="icon" viewBox="0 0 1024 1024" version="1.1" xmlns="http://www.w3.org/2000/svg" p-id="8732" xmlns:xlink="http://www.w3.org/1999/xlink" width="48" height="48"><path d="M279.290647 28.858182a160.814545 160.814545 0 0 1 159.185455 162.909091v103.796363a160.814545 160.814545 0 0 1-159.185455 162.909091H182.010647a160.814545 160.814545 0 0 1-159.185454-162.909091V190.603636a160.814545 160.814545 0 0 1 159.185454-161.745454H279.290647m0-23.272727H182.010647A183.621818 183.621818 0 0 0 0.01792 190.603636v103.796364a183.621818 183.621818 0 0 0 181.992727 186.181818H279.290647a183.621818 183.621818 0 0 0 181.992728-186.181818V190.603636A183.621818 183.621818 0 0 0 279.290647 5.585455zM773.603375 23.272727a157.556364 157.556364 0 0 1 112.64 46.545455L954.199738 139.636364a164.072727 164.072727 0 0 1 0 228.770909L882.287011 442.181818a157.090909 157.090909 0 0 1-225.047273 0l-68.421818-69.818182a162.909091 162.909091 0 0 1 0-228.770909L660.963375 69.818182a157.556364 157.556364 0 0 1 112.64-46.545455m0-23.272727a180.363636 180.363636 0 0 0-128.698182 54.225455l-72.145455 73.30909a186.181818 186.181818 0 0 0 0 261.585455l68.421818 69.818182a180.363636 180.363636 0 0 0 257.396364 0l72.145455-73.541818a186.181818 186.181818 0 0 0 0-261.352728l-68.421819-69.818181A180.363636 180.363636 0 0 0 773.603375 0zM820.148829 573.44a160.814545 160.814545 0 0 1 159.185455 162.909091v104.029091A160.814545 160.814545 0 0 1 820.148829 1000.727273h-96.814545a160.814545 160.814545 0 0 1-159.185455-161.745455v-103.796363a160.814545 160.814545 0 0 1 159.185455-161.745455h96.814545m0-23.272727h-96.814545a183.389091 183.389091 0 0 0-181.992728 184.785454v104.029091A183.389091 183.389091 0 0 0 723.334284 1024h96.814545a183.389091 183.389091 0 0 0 181.992727-184.785455v-104.02909a183.389091 183.389091 0 0 0-181.992727-184.785455zM279.290647 573.44a160.814545 160.814545 0 0 1 159.185455 162.909091v104.029091A160.814545 160.814545 0 0 1 279.290647 1000.727273H182.010647A160.814545 160.814545 0 0 1 23.290647 839.214545v-104.02909a160.814545 160.814545 0 0 1 159.185455-161.745455H279.290647m0-23.272727H182.010647A183.389091 183.389091 0 0 0 0.01792 735.185455v104.02909A183.389091 183.389091 0 0 0 182.010647 1024H279.290647a183.389091 183.389091 0 0 0 181.992728-184.785455v-104.02909A183.389091 183.389091 0 0 0 279.290647 550.4z" fill="#1296db" p-id="8733"></path></svg>